<svg width="11" height="11" viewBox="0 0 11 11" fill="none" xmlns="http://www.w3.org/2000/svg">
<path d="M9 5.36982C9.1234 6.20202 8.9812 7.05202 8.5937 7.79882C8.2062 8.54562 7.5931 9.15122 6.8416 9.52952C6.0901 9.90772 5.2384 10.0394 4.4077 9.90572C3.5771 9.77212 2.80971 9.37992 2.21479 8.78502C1.61987 8.19002 1.22768 7.42272 1.09402 6.59202C0.960351 5.76132 1.09202 4.90972 1.47028 4.15822C1.84854 3.40667 2.45414 2.79356 3.2009 2.40606C3.9477 2.01856 4.7977 1.8764 5.63 1.99982C6.4789 2.1257 7.2648 2.52128 7.8716 3.12812C8.4785 3.73497 8.8741 4.52092 9 5.36982Z" stroke="white" stroke-width="2" stroke-linecap="round" stroke-linejoin="round"/>
</svg>
